<svg width="16" height="16" viewBox="0 0 16 16" fill="none" xmlns="http://www.w3.org/2000/svg">
<path d="M9.06081 8.00016L12.2659 4.79506L12.9269 4.1341C13.0244 4.03659 13.0244 3.87815 12.9269 3.78065L12.2197 3.07344C12.1222 2.97594 11.9637 2.97594 11.8662 3.07344L8.00016 6.9395L4.1341 3.07313C4.03659 2.97562 3.87815 2.97562 3.78065 3.07313L3.07313 3.78034C2.97562 3.87784 2.97562 4.03628 3.07313 4.13379L6.9395 8.00016L3.07313 11.8662C2.97562 11.9637 2.97562 12.1222 3.07313 12.2197L3.78034 12.9269C3.87784 13.0244 4.03628 13.0244 4.13379 12.9269L8.00016 9.06081L11.2053 12.2659L11.8662 12.9269C11.9637 13.0244 12.1222 13.0244 12.2197 12.9269L12.9269 12.2197C13.0244 12.1222 13.0244 11.9637 12.9269 11.8662L9.06081 8.00016Z" fill="#151515"/>
</svg>
