<svg width="16" height="16" viewBox="0 0 16 16" fill="none" xmlns="http://www.w3.org/2000/svg">
<path d="M14.6668 3.86668C14.1657 4.08408 13.6358 4.22779 13.0935 4.29335C13.6656 3.95156 14.0943 3.41387 14.3002 2.78002C13.7625 3.10006 13.174 3.32555 12.5602 3.44668C12.1499 3.00173 11.6035 2.70555 11.0067 2.60459C10.4099 2.50362 9.79652 2.60359 9.26269 2.88881C8.72885 3.17403 8.30478 3.62837 8.05699 4.18058C7.80919 4.73278 7.75169 5.35161 7.8935 5.94002C6.80645 5.88503 5.74312 5.60199 4.7726 5.10926C3.80207 4.61653 2.94606 3.92515 2.26016 3.08002C2.01959 3.50013 1.89318 3.9759 1.8935 4.46002C1.89264 4.90961 2.00297 5.35243 2.21467 5.74906C2.42636 6.14569 2.73284 6.48382 3.10683 6.73335C2.67215 6.72152 2.24675 6.60488 1.86683 6.39335V6.42668C1.87009 7.05661 2.09083 7.66608 2.49171 8.15199C2.89259 8.63791 3.449 8.97045 4.06683 9.09335C3.829 9.16573 3.58208 9.20389 3.3335 9.20668C3.16142 9.20467 2.98978 9.18907 2.82016 9.16002C2.9961 9.70189 3.33658 10.1754 3.79421 10.5148C4.25185 10.8541 4.80388 11.0424 5.3735 11.0534C4.41163 11.8102 3.22408 12.2233 2.00016 12.2267C1.77732 12.2274 1.55465 12.2141 1.3335 12.1867C2.58311 12.9935 4.03937 13.4218 5.52683 13.42C6.55329 13.4307 7.57159 13.2367 8.52224 12.8494C9.47289 12.4621 10.3368 11.8893 11.0636 11.1643C11.7904 10.4394 12.3655 9.57694 12.7552 8.62729C13.1449 7.67763 13.3415 6.65984 13.3335 5.63335C13.3335 5.52002 13.3335 5.40002 13.3335 5.28002C13.8566 4.88989 14.3078 4.41163 14.6668 3.86668Z" fill="#F92E35"/>
</svg>
