<svg width="16" height="16" viewBox="0 0 16 16" fill="none" xmlns="http://www.w3.org/2000/svg">
<path d="M14.5372 6.69437H14.0002V6.66671H8.00016V9.33337H11.7678C11.2182 10.8857 9.74116 12 8.00016 12C5.79116 12 4.00016 10.209 4.00016 8.00004C4.00016 5.79104 5.79116 4.00004 8.00016 4.00004C9.01983 4.00004 9.9475 4.38471 10.6538 5.01304L12.5395 3.12737C11.3488 2.01771 9.75616 1.33337 8.00016 1.33337C4.3185 1.33337 1.3335 4.31837 1.3335 8.00004C1.3335 11.6817 4.3185 14.6667 8.00016 14.6667C11.6818 14.6667 14.6668 11.6817 14.6668 8.00004C14.6668 7.55304 14.6208 7.11671 14.5372 6.69437Z" fill="#FFC107"/>
<path d="M2.10205 4.89704L4.29238 6.50337C4.88505 5.03604 6.32038 4.00004 8.00005 4.00004C9.01972 4.00004 9.94738 4.38471 10.6537 5.01304L12.5394 3.12737C11.3487 2.01771 9.75605 1.33337 8.00005 1.33337C5.43938 1.33337 3.21872 2.77904 2.10205 4.89704Z" fill="#FF3D00"/>
<path d="M7.99994 14.6667C9.72194 14.6667 11.2866 14.0077 12.4696 12.936L10.4063 11.19C9.73694 11.697 8.90494 12 7.99994 12C6.26594 12 4.79361 10.8943 4.23894 9.35132L2.06494 11.0263C3.16827 13.1853 5.40894 14.6667 7.99994 14.6667Z" fill="#4CAF50"/>
<path d="M14.537 6.69429H14V6.66663H8V9.33329H11.7677C11.5037 10.079 11.024 10.722 10.4053 11.1903L10.4063 11.1896L12.4697 12.9356C12.3237 13.0683 14.6667 11.3333 14.6667 7.99996C14.6667 7.55296 14.6207 7.11663 14.537 6.69429Z" fill="#1976D2"/>
</svg>
