<svg width="16" height="17" viewBox="0 0 16 17" fill="none" xmlns="http://www.w3.org/2000/svg">
<path d="M14.6668 4.36668C14.1657 4.58408 13.6358 4.72779 13.0935 4.79335C13.6656 4.45156 14.0943 3.91387 14.3002 3.28002C13.7625 3.60006 13.174 3.82555 12.5602 3.94668C12.1499 3.50173 11.6035 3.20555 11.0067 3.10459C10.4099 3.00362 9.79652 3.10359 9.26269 3.38881C8.72885 3.67403 8.30478 4.12837 8.05699 4.68058C7.80919 5.23278 7.75169 5.85161 7.8935 6.44002C6.80645 6.38503 5.74312 6.10199 4.7726 5.60926C3.80207 5.11653 2.94606 4.42515 2.26016 3.58002C2.01959 4.00013 1.89318 4.4759 1.8935 4.96002C1.89264 5.40961 2.00297 5.85243 2.21467 6.24906C2.42636 6.64569 2.73284 6.98382 3.10683 7.23335C2.67215 7.22152 2.24675 7.10488 1.86683 6.89335V6.92668C1.87009 7.55661 2.09083 8.16608 2.49171 8.65199C2.89259 9.13791 3.449 9.47045 4.06683 9.59335C3.829 9.66573 3.58208 9.70389 3.3335 9.70668C3.16142 9.70467 2.98978 9.68907 2.82016 9.66002C2.9961 10.2019 3.33658 10.6754 3.79421 11.0148C4.25185 11.3541 4.80388 11.5424 5.3735 11.5534C4.41163 12.3102 3.22408 12.7233 2.00016 12.7267C1.77732 12.7274 1.55465 12.7141 1.3335 12.6867C2.58311 13.4935 4.03937 13.9218 5.52683 13.92C6.55329 13.9307 7.57159 13.7367 8.52224 13.3494C9.47289 12.9621 10.3368 12.3893 11.0636 11.6643C11.7904 10.9394 12.3655 10.0769 12.7552 9.12729C13.1449 8.17763 13.3415 7.15984 13.3335 6.13335C13.3335 6.02002 13.3335 5.90002 13.3335 5.78002C13.8566 5.38989 14.3078 4.91163 14.6668 4.36668Z" fill="#151515"/>
</svg>
