<svg width="16" height="16" viewBox="0 0 16 16" fill="none" xmlns="http://www.w3.org/2000/svg">
<path d="M9.98335 2.01261L10.6232 0.858215C10.6314 0.843405 10.6367 0.827123 10.6386 0.810298C10.6405 0.793474 10.6391 0.776436 10.6344 0.760158C10.6297 0.743881 10.6219 0.728681 10.6114 0.715429C10.6008 0.702176 10.5878 0.691129 10.573 0.682919C10.5431 0.666337 10.5078 0.662317 10.4749 0.671742C10.442 0.681167 10.4143 0.703265 10.3977 0.733175L9.75071 1.90036C9.1987 1.65837 8.60252 1.53343 7.99979 1.53343C7.39707 1.53343 6.80089 1.65837 6.24888 1.90036L5.60189 0.733175C5.58531 0.703265 5.55752 0.681167 5.52465 0.671742C5.49177 0.662317 5.4565 0.666337 5.42659 0.682919C5.39668 0.6995 5.37458 0.727284 5.36516 0.760158C5.35573 0.793033 5.35975 0.828305 5.37634 0.858215L6.01624 2.01262C5.40712 2.31286 4.89246 2.77506 4.52871 3.34852C4.16496 3.92197 3.96616 4.58453 3.95413 5.26351H12.0455C12.0334 4.58453 11.8346 3.92197 11.4709 3.34851C11.1071 2.77506 10.5925 2.31286 9.98335 2.01261ZM6.13252 3.78301C6.0657 3.78301 6.00038 3.76319 5.94481 3.72607C5.88925 3.68894 5.84595 3.63617 5.82037 3.57444C5.7948 3.5127 5.78811 3.44477 5.80115 3.37923C5.81418 3.31369 5.84636 3.25349 5.89361 3.20623C5.94087 3.15898 6.00107 3.1268 6.06661 3.11377C6.13215 3.10073 6.20008 3.10742 6.26182 3.13299C6.32356 3.15857 6.37632 3.20187 6.41345 3.25743C6.45057 3.31299 6.47039 3.37832 6.47039 3.44514C6.47029 3.53472 6.43466 3.6206 6.37132 3.68394C6.30798 3.74728 6.2221 3.78291 6.13252 3.78301ZM9.86704 3.78301C9.80022 3.78301 9.7349 3.76319 9.67933 3.72607C9.62377 3.68894 9.58047 3.63617 9.55489 3.57444C9.52932 3.5127 9.52263 3.44477 9.53567 3.37923C9.5487 3.31369 9.58088 3.25349 9.62813 3.20623C9.67539 3.15898 9.73559 3.1268 9.80113 3.11377C9.86667 3.10073 9.9346 3.10742 9.99634 3.13299C10.0581 3.15857 10.1108 3.20187 10.148 3.25743C10.1851 3.31299 10.2049 3.37832 10.2049 3.44514C10.2048 3.53472 10.1692 3.6206 10.1058 3.68394C10.0425 3.74728 9.95662 3.78291 9.86704 3.78301ZM3.95407 11.4477C3.95407 11.7071 4.05712 11.9559 4.24054 12.1393C4.42397 12.3227 4.67275 12.4258 4.93216 12.4258H5.58122V14.4264C5.5809 14.5457 5.60412 14.6639 5.64955 14.7742C5.69499 14.8846 5.76174 14.9848 5.846 15.0693C5.93025 15.1538 6.03034 15.2208 6.14054 15.2666C6.25074 15.3123 6.36888 15.3358 6.48819 15.3358C6.6075 15.3358 6.72564 15.3123 6.83584 15.2666C6.94604 15.2208 7.04614 15.1538 7.13039 15.0693C7.21464 14.9848 7.2814 14.8846 7.32683 14.7742C7.37226 14.6639 7.39549 14.5457 7.39516 14.4264V12.4258H8.6044V14.4264C8.60408 14.5457 8.6273 14.6639 8.67273 14.7742C8.71817 14.8846 8.78492 14.9848 8.86918 15.0693C8.95343 15.1538 9.05352 15.2208 9.16372 15.2666C9.27392 15.3123 9.39206 15.3358 9.51137 15.3358C9.63068 15.3358 9.74882 15.3123 9.85902 15.2666C9.96922 15.2208 10.0693 15.1538 10.1536 15.0693C10.2378 14.9848 10.3046 14.8846 10.35 14.7742C10.3954 14.6639 10.4187 14.5457 10.4183 14.4264V12.4258H11.0674C11.3268 12.4258 11.5756 12.3227 11.759 12.1393C11.9425 11.9559 12.0455 11.7071 12.0455 11.4477V5.58358H3.95407V11.4477ZM2.70922 5.42797C2.46876 5.42825 2.23822 5.52389 2.06819 5.69392C1.89816 5.86396 1.80252 6.09449 1.80225 6.33495V10.1139C1.80193 10.2332 1.82515 10.3514 1.87058 10.4618C1.91602 10.5721 1.98277 10.6724 2.06702 10.7568C2.15128 10.8413 2.25137 10.9083 2.36157 10.9541C2.47177 10.9998 2.58991 11.0234 2.70922 11.0234C2.82853 11.0234 2.94667 10.9998 3.05687 10.9541C3.16707 10.9083 3.26716 10.8413 3.35142 10.7568C3.43567 10.6724 3.50242 10.5721 3.54786 10.4618C3.59329 10.3514 3.61651 10.2332 3.61619 10.1139V6.33495C3.61592 6.09449 3.52027 5.86395 3.35024 5.69392C3.18021 5.52389 2.94968 5.42825 2.70922 5.42797ZM13.2903 5.42797C13.0499 5.42825 12.8194 5.52389 12.6493 5.69392C12.4793 5.86395 12.3836 6.09449 12.3834 6.33495V10.1139C12.3831 10.2332 12.4063 10.3514 12.4517 10.4618C12.4971 10.5721 12.5639 10.6724 12.6481 10.7568C12.7324 10.8413 12.8325 10.9083 12.9427 10.9541C13.0529 10.9998 13.171 11.0234 13.2903 11.0234C13.4097 11.0234 13.5278 10.9998 13.638 10.9541C13.7482 10.9083 13.8483 10.8413 13.9325 10.7568C14.0168 10.6724 14.0835 10.5721 14.129 10.4618C14.1744 10.3514 14.1976 10.2332 14.1973 10.1139V6.33495C14.197 6.09449 14.1014 5.86396 13.9314 5.69392C13.7613 5.52389 13.5308 5.42825 13.2903 5.42797Z" fill="#E7DECF"/>
</svg>
