<svg width="16" height="16" viewBox="0 0 16 16" fill="none" xmlns="http://www.w3.org/2000/svg">
<path d="M5.5625 6.31246H11.9258L8.94453 3.73902C8.70945 3.53615 8.68391 3.18097 8.88666 2.9459C9.09029 2.71012 9.44565 2.68316 9.68002 2.88761L13.805 6.42901C13.9086 6.55621 14 6.7109 14 6.87496C14 7.03827 13.929 7.19324 13.8052 7.30012L9.68023 10.8415C9.57404 10.9338 9.44281 10.9786 9.3125 10.9786C9.15502 10.9786 8.9982 10.9127 8.88687 10.7837C8.684 10.5487 8.70964 10.1934 8.94474 9.99062L11.926 7.41719H5.5625C4.21859 7.41719 3.125 8.51054 3.125 9.83359V12.625C3.125 12.9992 2.87305 13.25 2.5625 13.25C2.25195 13.25 2 12.9992 2 12.6875V9.89605C2 7.9109 3.5982 6.31246 5.5625 6.31246Z" fill="#C8BEAB"/>
</svg>
