<svg width="16" height="16" viewBox="0 0 16 16" fill="none" xmlns="http://www.w3.org/2000/svg">
<path d="M13.9287 10.9065L11.7188 13.3713L10.792 12.5657L11.6572 11.5911H11.3174C10.2667 11.5911 9.26172 11.1498 8.56641 10.3889L7.7168 9.46118L8.62891 8.63892L9.47852 9.56763C9.94206 10.0849 10.6221 10.3743 11.3174 10.3743H11.7959L10.792 9.24829L11.7188 8.44165L13.9287 10.9065ZM13.9287 4.97192L11.7188 7.43677L10.792 6.63013L11.7959 5.50415H11.3174C10.6221 5.50415 9.94206 5.79342 9.47852 6.31079L5.75488 10.3889C5.05957 11.1498 4.05461 11.5911 3.00391 11.5911H2V10.3743H3.00391C3.6991 10.3743 4.37923 10.0848 4.84277 9.56763L8.56641 5.4895C9.26172 4.72863 10.2667 4.28735 11.3174 4.28735H11.6572L10.792 3.31274L11.7188 2.52173L13.9287 4.97192ZM3.00391 4.28735C4.05461 4.28735 5.05957 4.72863 5.75488 5.4895L6.54297 6.34106L5.63086 7.16333L4.84277 6.31079C4.37923 5.79352 3.69914 5.50415 3.00391 5.50415H2V4.28735H3.00391Z" fill="#F92E35"/>
</svg>
