<svg width="16" height="16" viewBox="0 0 16 16" fill="none" xmlns="http://www.w3.org/2000/svg">
<g clip-path="url(#clip0_9_1081)">
<path d="M13.3293 2.60263C11.9061 1.176 10.0107 0.391357 7.99641 0.391357C3.8388 0.391357 0.455651 3.77451 0.455651 7.93212C0.455651 9.26024 0.802119 10.5578 1.46109 11.7025L0.391113 15.6087L4.38908 14.5592C5.48962 15.1604 6.72943 15.4763 7.99302 15.4763H7.99641C12.1506 15.4763 15.6085 12.0931 15.6085 7.93552C15.6085 5.92125 14.7525 4.02926 13.3293 2.60263ZM7.99641 14.2059C6.86869 14.2059 5.76475 13.9036 4.80348 13.3329L4.5759 13.1971L2.20497 13.8187L2.83677 11.5055L2.68731 11.2677C2.05891 10.2691 1.72943 9.11758 1.72943 7.93212C1.72943 4.47763 4.54193 1.66513 7.99981 1.66513C9.6744 1.66513 11.2471 2.31731 12.4292 3.50277C13.6112 4.68823 14.3381 6.26092 14.3347 7.93552C14.3347 11.3934 11.4509 14.2059 7.99641 14.2059ZM11.4339 9.5116C11.2471 9.41649 10.3198 8.96133 10.1465 8.90019C9.97331 8.83565 9.84764 8.80508 9.72196 8.9953C9.59628 9.18551 9.23622 9.60671 9.12413 9.73579C9.01543 9.86147 8.90334 9.87845 8.71652 9.78334C7.60918 9.22967 6.88228 8.79489 6.15198 7.54149C5.95837 7.20861 6.3456 7.23239 6.70565 6.51228C6.76679 6.3866 6.73622 6.27791 6.68867 6.1828C6.64111 6.08769 6.26408 5.16038 6.10783 4.78334C5.95497 4.41649 5.79872 4.46744 5.68323 4.46065C5.57454 4.45386 5.44886 4.45386 5.32318 4.45386C5.1975 4.45386 4.99369 4.50141 4.82046 4.68823C4.64723 4.87845 4.16149 5.33361 4.16149 6.26092C4.16149 7.18823 4.83744 8.08497 4.92916 8.21065C5.02427 8.33633 6.25728 10.2385 8.14927 11.0571C9.34492 11.5734 9.81367 11.6176 10.4115 11.5293C10.7749 11.4749 11.5256 11.0741 11.6819 10.6325C11.8381 10.1909 11.8381 9.81391 11.7906 9.73579C11.7464 9.65087 11.6207 9.60331 11.4339 9.5116Z" fill="#C8BEAB"/>
</g>
<defs>
<clipPath id="clip0_9_1081">
<rect width="16" height="16" fill="white"/>
</clipPath>
</defs>
</svg>
