<svg width="16" height="16" viewBox="0 0 16 16" fill="none" xmlns="http://www.w3.org/2000/svg">
<path fill-rule="evenodd" clip-rule="evenodd" d="M12.7437 3.33226C11.3891 2.14914 9.29609 2.32685 8 3.69742C6.70391 2.32685 4.61094 2.1467 3.25625 3.33226C1.49375 4.87323 1.75157 7.38554 3.00781 8.71715L7.11875 13.0674C7.35312 13.3157 7.66719 13.4545 8 13.4545C8.33515 13.4545 8.64687 13.3182 8.88125 13.0699L12.9922 8.71959C14.2461 7.38797 14.5086 4.87567 12.7437 3.33226ZM12.1907 7.89676L8.07977 12.247C8.02352 12.3055 7.97665 12.3055 7.9204 12.247L3.80946 7.89676C2.954 6.99116 2.78056 5.27734 3.98056 4.22811C4.89228 3.43206 6.29853 3.55135 7.17977 4.48373L8.00009 5.35281L8.8204 4.48373C9.70634 3.54648 11.1126 3.43206 12.0196 4.22568C13.2173 5.27491 13.0391 6.99846 12.1907 7.89676V7.89676Z" fill="#C8BEAB"/>
</svg>
