<svg width="16" height="16" viewBox="0 0 16 16" fill="none" xmlns="http://www.w3.org/2000/svg">
<path d="M13.2715 11.7922C13.6799 12.2014 13.6799 12.8637 13.2715 13.2717C12.8639 13.6799 12.2016 13.68 11.793 13.2717L9.2334 10.7122C9.82658 10.3308 10.3307 9.82624 10.7119 9.23267L13.2715 11.7922ZM6.60547 2.42212C8.9158 2.42216 10.7891 4.29555 10.7891 6.60571C10.789 8.91565 8.91577 10.7893 6.60547 10.7893C4.2955 10.7893 2.42192 8.91568 2.42188 6.60571C2.42188 4.29553 4.29547 2.42212 6.60547 2.42212ZM6.60547 3.46802C4.87523 3.46802 3.46777 4.87548 3.46777 6.60571C3.46779 8.33557 4.87543 9.74341 6.60547 9.74341C8.33583 9.74335 9.74315 8.33534 9.74316 6.60571C9.74316 4.87533 8.33584 3.46808 6.60547 3.46802ZM6.60547 4.86255C5.64453 4.8626 4.8623 5.64458 4.8623 6.60571H4.16504C4.16504 5.26005 5.26018 4.16533 6.60547 4.16528V4.86255Z" fill="#A29379"/>
</svg>
