<svg width="16" height="16" viewBox="0 0 16 16" fill="none" xmlns="http://www.w3.org/2000/svg">
<path d="M8.6665 3.33329C8.6665 2.96511 8.36804 2.66663 7.99984 2.66663C7.63164 2.66663 7.33317 2.96511 7.33317 3.33329V7.33329H3.33317C2.96498 7.33329 2.6665 7.63176 2.6665 7.99996C2.6665 8.36816 2.96498 8.66663 3.33317 8.66663H7.33317V12.6666C7.33317 13.0348 7.63164 13.3333 7.99984 13.3333C8.36804 13.3333 8.6665 13.0348 8.6665 12.6666V8.66663H12.6665C13.0347 8.66663 13.3332 8.36816 13.3332 7.99996C13.3332 7.63176 13.0347 7.33329 12.6665 7.33329H8.6665V3.33329Z" fill="#151515"/>
</svg>
