<svg width="16" height="17" viewBox="0 0 16 17" fill="none" xmlns="http://www.w3.org/2000/svg">
<path d="M11.5602 4.14004C11.4019 4.14004 11.2473 4.18696 11.1157 4.27487C10.9841 4.36277 10.8816 4.48771 10.8211 4.63389C10.7605 4.78007 10.7447 4.94093 10.7755 5.09611C10.8064 5.2513 10.8826 5.39384 10.9945 5.50573C11.1064 5.61761 11.2489 5.6938 11.4041 5.72467C11.5593 5.75554 11.7201 5.73969 11.8663 5.67914C12.0125 5.61859 12.1374 5.51606 12.2253 5.3845C12.3132 5.25294 12.3602 5.09827 12.3602 4.94004C12.3602 4.72787 12.2759 4.52438 12.1258 4.37436C11.9758 4.22433 11.7723 4.14004 11.5602 4.14004ZM14.6268 5.75337C14.6139 5.20024 14.5103 4.65298 14.3202 4.13337C14.1506 3.6888 13.8868 3.28623 13.5468 2.95337C13.2167 2.61166 12.8132 2.34949 12.3668 2.18671C11.8486 1.99081 11.3007 1.88485 10.7468 1.87337C10.0402 1.83337 9.8135 1.83337 8.00016 1.83337C6.18683 1.83337 5.96016 1.83337 5.2535 1.87337C4.6996 1.88485 4.15172 1.99081 3.6335 2.18671C3.18795 2.35114 2.78479 2.61308 2.4535 2.95337C2.11178 3.28349 1.84961 3.687 1.68683 4.13337C1.49094 4.6516 1.38497 5.19948 1.3735 5.75337C1.3335 6.46004 1.3335 6.68671 1.3335 8.50004C1.3335 10.3134 1.3335 10.54 1.3735 11.2467C1.38497 11.8006 1.49094 12.3485 1.68683 12.8667C1.84961 13.3131 2.11178 13.7166 2.4535 14.0467C2.78479 14.387 3.18795 14.6489 3.6335 14.8134C4.15172 15.0093 4.6996 15.1152 5.2535 15.1267C5.96016 15.1667 6.18683 15.1667 8.00016 15.1667C9.8135 15.1667 10.0402 15.1667 10.7468 15.1267C11.3007 15.1152 11.8486 15.0093 12.3668 14.8134C12.8132 14.6506 13.2167 14.3884 13.5468 14.0467C13.8883 13.7151 14.1524 13.3122 14.3202 12.8667C14.5103 12.3471 14.6139 11.7998 14.6268 11.2467C14.6268 10.54 14.6668 10.3134 14.6668 8.50004C14.6668 6.68671 14.6668 6.46004 14.6268 5.75337ZM13.4268 11.1667C13.422 11.5899 13.3453 12.0092 13.2002 12.4067C13.0937 12.6968 12.9227 12.959 12.7002 13.1734C12.4839 13.3937 12.2223 13.5643 11.9335 13.6734C11.536 13.8185 11.1167 13.8952 10.6935 13.9C10.0268 13.9334 9.78016 13.94 8.02683 13.94C6.2735 13.94 6.02683 13.94 5.36016 13.9C4.92076 13.9083 4.48323 13.8406 4.06683 13.7C3.79068 13.5854 3.54107 13.4152 3.3335 13.2C3.11222 12.9859 2.94339 12.7235 2.84016 12.4334C2.6774 12.0301 2.58712 11.6013 2.5735 11.1667C2.5735 10.5 2.5335 10.2534 2.5335 8.50004C2.5335 6.74671 2.5335 6.50004 2.5735 5.83337C2.57648 5.40074 2.65546 4.972 2.80683 4.56671C2.92419 4.28531 3.10434 4.03448 3.3335 3.83337C3.53604 3.60415 3.78635 3.4221 4.06683 3.30004C4.4732 3.1534 4.90149 3.07676 5.3335 3.07337C6.00016 3.07337 6.24683 3.03337 8.00016 3.03337C9.7535 3.03337 10.0002 3.03337 10.6668 3.07337C11.09 3.07823 11.5093 3.15487 11.9068 3.30004C12.2098 3.41248 12.4817 3.59527 12.7002 3.83337C12.9186 4.03816 13.0893 4.28853 13.2002 4.56671C13.3483 4.97266 13.425 5.40123 13.4268 5.83337C13.4602 6.50004 13.4668 6.74671 13.4668 8.50004C13.4668 10.2534 13.4602 10.5 13.4268 11.1667ZM8.00016 5.08004C7.32404 5.08136 6.66347 5.28306 6.10193 5.65965C5.54039 6.03625 5.10308 6.57084 4.84525 7.19588C4.58742 7.82091 4.52065 8.50835 4.65336 9.17133C4.78607 9.8343 5.11232 10.4431 5.59088 10.9207C6.06944 11.3983 6.67884 11.7234 7.34207 11.8548C8.0053 11.9862 8.69261 11.9181 9.31714 11.6591C9.94168 11.4 10.4754 10.9617 10.8509 10.3994C11.2264 9.83713 11.4268 9.17617 11.4268 8.50004C11.4277 8.05011 11.3396 7.60444 11.1677 7.18868C10.9957 6.77291 10.7432 6.39525 10.4247 6.07741C10.1063 5.75957 9.72813 5.50783 9.31203 5.33666C8.89593 5.16549 8.45009 5.07828 8.00016 5.08004ZM8.00016 10.72C7.56109 10.72 7.13187 10.5898 6.7668 10.3459C6.40172 10.102 6.11718 9.75525 5.94915 9.3496C5.78112 8.94395 5.73716 8.49758 5.82282 8.06694C5.90848 7.6363 6.11991 7.24074 6.43039 6.93026C6.74086 6.61979 7.13642 6.40836 7.56706 6.3227C7.9977 6.23704 8.44407 6.281 8.84972 6.44903C9.25537 6.61705 9.60209 6.9016 9.84602 7.26667C10.09 7.63175 10.2202 8.06097 10.2202 8.50004C10.2202 8.79157 10.1627 9.08025 10.0512 9.3496C9.93961 9.61894 9.77609 9.86367 9.56994 10.0698C9.36379 10.276 9.11906 10.4395 8.84972 10.5511C8.58038 10.6626 8.2917 10.72 8.00016 10.72Z" fill="#151515"/>
</svg>
