<svg width="16" height="16" viewBox="0 0 16 16" fill="none" xmlns="http://www.w3.org/2000/svg">
<path d="M11.5602 3.64004C11.4019 3.64004 11.2473 3.68696 11.1157 3.77487C10.9841 3.86277 10.8816 3.98771 10.8211 4.13389C10.7605 4.28007 10.7447 4.44093 10.7755 4.59611C10.8064 4.7513 10.8826 4.89384 10.9945 5.00573C11.1064 5.11761 11.2489 5.1938 11.4041 5.22467C11.5593 5.25554 11.7201 5.23969 11.8663 5.17914C12.0125 5.11859 12.1374 5.01606 12.2253 4.8845C12.3132 4.75294 12.3602 4.59827 12.3602 4.44004C12.3602 4.22787 12.2759 4.02438 12.1258 3.87436C11.9758 3.72433 11.7723 3.64004 11.5602 3.64004ZM14.6268 5.25337C14.6139 4.70024 14.5103 4.15298 14.3202 3.63337C14.1506 3.1888 13.8868 2.78623 13.5468 2.45337C13.2167 2.11166 12.8132 1.84949 12.3668 1.68671C11.8486 1.49081 11.3007 1.38485 10.7468 1.37337C10.0402 1.33337 9.8135 1.33337 8.00016 1.33337C6.18683 1.33337 5.96016 1.33337 5.2535 1.37337C4.6996 1.38485 4.15172 1.49081 3.6335 1.68671C3.18795 1.85114 2.78479 2.11308 2.4535 2.45337C2.11178 2.78349 1.84961 3.187 1.68683 3.63337C1.49094 4.1516 1.38497 4.69948 1.3735 5.25337C1.3335 5.96004 1.3335 6.18671 1.3335 8.00004C1.3335 9.81337 1.3335 10.04 1.3735 10.7467C1.38497 11.3006 1.49094 11.8485 1.68683 12.3667C1.84961 12.8131 2.11178 13.2166 2.4535 13.5467C2.78479 13.887 3.18795 14.1489 3.6335 14.3134C4.15172 14.5093 4.6996 14.6152 5.2535 14.6267C5.96016 14.6667 6.18683 14.6667 8.00016 14.6667C9.8135 14.6667 10.0402 14.6667 10.7468 14.6267C11.3007 14.6152 11.8486 14.5093 12.3668 14.3134C12.8132 14.1506 13.2167 13.8884 13.5468 13.5467C13.8883 13.2151 14.1524 12.8122 14.3202 12.3667C14.5103 11.8471 14.6139 11.2998 14.6268 10.7467C14.6268 10.04 14.6668 9.81337 14.6668 8.00004C14.6668 6.18671 14.6668 5.96004 14.6268 5.25337ZM13.4268 10.6667C13.422 11.0899 13.3453 11.5092 13.2002 11.9067C13.0937 12.1968 12.9227 12.459 12.7002 12.6734C12.4839 12.8937 12.2223 13.0643 11.9335 13.1734C11.536 13.3185 11.1167 13.3952 10.6935 13.4C10.0268 13.4334 9.78016 13.44 8.02683 13.44C6.2735 13.44 6.02683 13.44 5.36016 13.4C4.92076 13.4083 4.48323 13.3406 4.06683 13.2C3.79068 13.0854 3.54107 12.9152 3.3335 12.7C3.11222 12.4859 2.94339 12.2235 2.84016 11.9334C2.6774 11.5301 2.58712 11.1013 2.5735 10.6667C2.5735 10 2.5335 9.75337 2.5335 8.00004C2.5335 6.24671 2.5335 6.00004 2.5735 5.33337C2.57648 4.90074 2.65546 4.472 2.80683 4.06671C2.92419 3.78531 3.10434 3.53448 3.3335 3.33337C3.53604 3.10415 3.78635 2.9221 4.06683 2.80004C4.4732 2.6534 4.90149 2.57676 5.3335 2.57337C6.00016 2.57337 6.24683 2.53337 8.00016 2.53337C9.7535 2.53337 10.0002 2.53337 10.6668 2.57337C11.09 2.57823 11.5093 2.65487 11.9068 2.80004C12.2098 2.91248 12.4817 3.09527 12.7002 3.33337C12.9186 3.53816 13.0893 3.78853 13.2002 4.06671C13.3483 4.47266 13.425 4.90123 13.4268 5.33337C13.4602 6.00004 13.4668 6.24671 13.4668 8.00004C13.4668 9.75337 13.4602 10 13.4268 10.6667ZM8.00016 4.58004C7.32404 4.58136 6.66347 4.78306 6.10193 5.15965C5.54039 5.53625 5.10308 6.07084 4.84525 6.69588C4.58742 7.32091 4.52065 8.00835 4.65336 8.67133C4.78607 9.3343 5.11232 9.94306 5.59088 10.4207C6.06944 10.8983 6.67884 11.2234 7.34207 11.3548C8.0053 11.4862 8.69261 11.4181 9.31714 11.1591C9.94168 10.9 10.4754 10.4617 10.8509 9.8994C11.2264 9.33713 11.4268 8.67617 11.4268 8.00004C11.4277 7.55011 11.3396 7.10444 11.1677 6.68868C10.9957 6.27291 10.7432 5.89525 10.4247 5.57741C10.1063 5.25957 9.72813 5.00783 9.31203 4.83666C8.89593 4.66549 8.45009 4.57828 8.00016 4.58004ZM8.00016 10.22C7.56109 10.22 7.13187 10.0898 6.7668 9.8459C6.40172 9.60197 6.11718 9.25525 5.94915 8.8496C5.78112 8.44395 5.73716 7.99758 5.82282 7.56694C5.90848 7.1363 6.11991 6.74074 6.43039 6.43026C6.74086 6.11979 7.13642 5.90836 7.56706 5.8227C7.9977 5.73704 8.44407 5.781 8.84972 5.94903C9.25537 6.11705 9.60209 6.4016 9.84602 6.76667C10.09 7.13175 10.2202 7.56097 10.2202 8.00004C10.2202 8.29157 10.1627 8.58025 10.0512 8.8496C9.93961 9.11894 9.77609 9.36367 9.56994 9.56982C9.36379 9.77596 9.11906 9.93949 8.84972 10.0511C8.58038 10.1626 8.2917 10.22 8.00016 10.22Z" fill="#F92E35"/>
</svg>
