<svg width="16" height="16" viewBox="0 0 16 16" fill="none" xmlns="http://www.w3.org/2000/svg">
<path d="M9.95994 3.46004C10.212 3.16956 10.4041 2.83215 10.5254 2.4672C10.6467 2.10224 10.6947 1.71693 10.6666 1.33337C9.89286 1.39583 9.17461 1.75974 8.66661 2.34671C8.42334 2.62802 8.23899 2.95529 8.12448 3.30914C8.00997 3.66298 7.96762 4.0362 7.99994 4.40671C8.37737 4.40985 8.75046 4.3261 9.09034 4.16195C9.43022 3.99779 9.72776 3.75762 9.95994 3.46004ZM11.6399 8.42004C11.6444 7.9092 11.779 7.40792 12.0309 6.96351C12.2829 6.5191 12.6439 6.14621 13.0799 5.88004C12.8048 5.48353 12.441 5.1566 12.0174 4.92516C11.5939 4.69372 11.1223 4.56414 10.6399 4.54671C9.59994 4.44004 8.63994 5.15337 8.08661 5.15337C7.53328 5.15337 6.75328 4.56004 5.88661 4.57337C5.32003 4.59204 4.76796 4.75723 4.28424 5.05283C3.80052 5.34844 3.40168 5.76436 3.12661 6.26004C1.95327 8.30004 2.82661 11.3334 3.99994 12.98C4.53327 13.7867 5.19994 14.7 6.07994 14.6667C6.95994 14.6334 7.24661 14.12 8.26661 14.12C9.28661 14.12 9.59994 14.6667 10.4666 14.6467C11.3333 14.6267 11.9466 13.82 12.5066 13.0134C12.9033 12.4277 13.2132 11.7878 13.4266 11.1134C12.8983 10.8881 12.4475 10.5129 12.13 10.0342C11.8125 9.5556 11.6421 8.99443 11.6399 8.42004Z" fill="#E7DECF"/>
</svg>
