<svg width="16" height="16" viewBox="0 0 16 16" fill="none" xmlns="http://www.w3.org/2000/svg">
<g clip-path="url(#clip0_9_1077)">
<path d="M8 0C12.4183 0 16 3.58172 16 8C16 12.4183 12.4183 16 8 16C3.58172 16 0 12.4183 0 8C0 3.58172 3.58172 0 8 0ZM11.2705 4.81641C10.9696 4.82184 10.5076 4.98269 8.28711 5.90625C7.50899 6.2299 5.95326 6.89993 3.62109 7.91602C3.24271 8.06652 3.04454 8.21345 3.02637 8.35742C2.9917 8.63399 3.38966 8.71997 3.89062 8.88281C4.2989 9.01553 4.84804 9.17143 5.13379 9.17773C5.39289 9.18333 5.68268 9.07568 6.00195 8.85645C8.17751 7.38788 9.30235 6.64511 9.37598 6.62695C9.4258 6.61565 9.49522 6.601 9.54199 6.64258C9.58867 6.68418 9.58405 6.76307 9.5791 6.78418C9.53823 6.95409 7.49277 8.81518 7.375 8.9375C6.92494 9.40493 6.41277 9.69059 7.20215 10.2109C7.88546 10.6612 8.28347 10.9488 8.9873 11.4102C9.4372 11.7051 9.79041 12.0553 10.2549 12.0127C10.4686 11.993 10.6896 11.7918 10.8018 11.1924C11.0668 9.77558 11.5876 6.70542 11.708 5.44043C11.7185 5.32974 11.705 5.1883 11.6943 5.12598C11.6837 5.06375 11.6619 4.97484 11.5811 4.90918C11.4852 4.8314 11.3367 4.81524 11.2705 4.81641Z" fill="#C8BEAB"/>
</g>
<defs>
<clipPath id="clip0_9_1077">
<rect width="16" height="16" fill="white"/>
</clipPath>
</defs>
</svg>
