<svg width="118" height="31" viewBox="0 0 118 31" fill="none" xmlns="http://www.w3.org/2000/svg">
<path d="M23.528 24.595H19.788L17.238 19.121C14.654 22.317 10.948 24.935 7.174 24.935C2.856 24.935 0 22.249 0 18.305C0 15.075 2.346 12.933 5.168 11.029C8.262 8.819 9.996 6.983 10.71 5.147L8.704 0.795H12.274L23.528 24.595ZM7.242 21.671C10.404 21.671 13.498 19.325 15.776 15.959L12.24 8.377C11.322 10.009 9.724 11.267 7.344 13.103C5.032 14.871 3.57 16.231 3.57 18.237C3.57 20.243 5.032 21.671 7.242 21.671Z" fill="#F92E35"/>
<path d="M34.2319 7.255C39.1279 7.255 42.9019 10.927 42.9019 16.095C42.9019 21.263 39.2979 24.935 34.6399 24.935C32.4979 24.935 30.5259 24.085 29.1319 22.691V30.375H25.9019V16.095C25.9019 10.655 29.6079 7.255 34.2319 7.255ZM34.3339 21.943C37.3599 21.943 39.5699 19.495 39.5699 16.095C39.5699 12.695 37.3599 10.247 34.3339 10.247C31.2739 10.247 29.0299 12.695 29.0299 16.095C29.0299 19.495 31.2739 21.943 34.3339 21.943Z" fill="#F92E35"/>
<path d="M56.5518 15.959C59.7478 17.217 61.3798 20.243 61.3798 24.595H58.0138C57.9798 20.311 55.7698 17.591 52.2678 17.591H50.0578V24.595H46.8278V7.595H50.0578V14.599H52.2678C55.4978 14.599 57.9458 12.015 57.9458 7.595H61.2098C61.2098 11.573 59.4078 14.701 56.5518 15.959Z" fill="#F92E35"/>
<path d="M77.61 11.777C79.854 12.899 81.35 15.211 81.35 17.795C81.35 22.011 77.95 24.935 72.986 24.935C68.022 24.935 64.622 22.011 64.622 17.795C64.622 15.211 66.118 12.899 68.362 11.777C66.152 10.655 64.724 8.377 64.724 5.555V3.175H67.886V5.453C67.886 8.343 69.96 10.349 72.986 10.349C76.012 10.349 78.086 8.343 78.086 5.453V0.625H81.248V5.555C81.248 8.377 79.82 10.655 77.61 11.777ZM72.986 22.045C75.944 22.045 78.086 20.141 78.086 17.489C78.086 14.871 75.944 12.967 72.986 12.967C70.028 12.967 67.886 14.871 67.886 17.489C67.886 20.141 70.028 22.045 72.986 22.045Z" fill="#F92E35"/>
<path d="M105.644 7.595H108.874V24.595H85.2438V7.595H88.4738V21.535H95.4438V7.595H98.6738V21.535H105.644V7.595Z" fill="#F92E35"/>
<path d="M114.16 0.795H117.764V4.535H114.16V0.795ZM114.33 7.595H117.56V24.595H114.33V7.595Z" fill="#F92E35"/>
</svg>
