<svg width="80" height="80" viewBox="0 0 80 80" fill="none" xmlns="http://www.w3.org/2000/svg">
<g clip-path="url(#clip0_9_1692)">
<path d="M41.6958 0L79.1108 78.873H66.6772L58.1987 60.7324C49.6079 71.3238 37.2868 80 24.7397 80C10.3843 79.9999 0.889353 71.0984 0.88916 58.0283C0.88916 47.3241 8.6887 40.2249 18.0708 33.915C28.3569 26.5913 34.1217 20.5072 36.4956 14.4229L29.8267 0H41.6958ZM41.6167 23.5566C38.5749 28.958 33.2799 33.1217 25.394 39.1982C17.7334 45.0498 12.8892 49.5511 12.8892 56.1904C12.8892 62.8297 17.7334 67.5556 25.0562 67.5557C35.5334 67.5557 45.7854 59.791 53.3335 48.6504L41.6167 23.5566Z" fill="#F92E35"/>
</g>
<defs>
<clipPath id="clip0_9_1692">
<rect width="80" height="80" fill="white"/>
</clipPath>
</defs>
</svg>
